<svg width="180" height="180" viewBox="0 0 100 100" xmlns="http://www.w3.org/2000/svg">
  <defs>
    <linearGradient id="lotus-gradient-apple" x1="0%" y1="0%" x2="100%" y2="100%">
      <stop offset="0%" style="stop-color:#ec4899;stop-opacity:1" />
      <stop offset="50%" style="stop-color:#8b5cf6;stop-opacity:1" />
      <stop offset="100%" style="stop-color:#06b6d4;stop-opacity:1" />
    </linearGradient>
    <filter id="glow-apple">
      <feGaussianBlur stdDeviation="2" result="coloredBlur"/>
      <feMerge> 
        <feMergeNode in="coloredBlur"/>
        <feMergeNode in="SourceGraphic"/>
      </feMerge>
    </filter>
  </defs>

  <!-- Background for Apple devices -->
  <rect width="100" height="100" fill="white" rx="15"/>
  
  <!-- Background Circle -->
  <circle cx="50" cy="50" r="40" fill="url(#lotus-gradient-apple)" opacity="0.1"/>
  
  <!-- Outer petals (8 petals) -->
  <g filter="url(#glow-apple)">
    <ellipse cx="50" cy="30" rx="3.5" ry="10" fill="url(#lotus-gradient-apple)" opacity="0.8" transform="rotate(0 50 50)"/>
    <ellipse cx="50" cy="30" rx="3.5" ry="10" fill="url(#lotus-gradient-apple)" opacity="0.8" transform="rotate(45 50 50)"/>
    <ellipse cx="50" cy="30" rx="3.5" ry="10" fill="url(#lotus-gradient-apple)" opacity="0.8" transform="rotate(90 50 50)"/>
    <ellipse cx="50" cy="30" rx="3.5" ry="10" fill="url(#lotus-gradient-apple)" opacity="0.8" transform="rotate(135 50 50)"/>
    <ellipse cx="50" cy="30" rx="3.5" ry="10" fill="url(#lotus-gradient-apple)" opacity="0.8" transform="rotate(180 50 50)"/>
    <ellipse cx="50" cy="30" rx="3.5" ry="10" fill="url(#lotus-gradient-apple)" opacity="0.8" transform="rotate(225 50 50)"/>
    <ellipse cx="50" cy="30" rx="3.5" ry="10" fill="url(#lotus-gradient-apple)" opacity="0.8" transform="rotate(270 50 50)"/>
    <ellipse cx="50" cy="30" rx="3.5" ry="10" fill="url(#lotus-gradient-apple)" opacity="0.8" transform="rotate(315 50 50)"/>
  </g>

  <!-- Middle layer petals (6 petals) -->
  <g filter="url(#glow-apple)">
    <ellipse cx="50" cy="37" rx="2.5" ry="7" fill="url(#lotus-gradient-apple)" opacity="0.9" transform="rotate(0 50 50)"/>
    <ellipse cx="50" cy="37" rx="2.5" ry="7" fill="url(#lotus-gradient-apple)" opacity="0.9" transform="rotate(60 50 50)"/>
    <ellipse cx="50" cy="37" rx="2.5" ry="7" fill="url(#lotus-gradient-apple)" opacity="0.9" transform="rotate(120 50 50)"/>
    <ellipse cx="50" cy="37" rx="2.5" ry="7" fill="url(#lotus-gradient-apple)" opacity="0.9" transform="rotate(180 50 50)"/>
    <ellipse cx="50" cy="37" rx="2.5" ry="7" fill="url(#lotus-gradient-apple)" opacity="0.9" transform="rotate(240 50 50)"/>
    <ellipse cx="50" cy="37" rx="2.5" ry="7" fill="url(#lotus-gradient-apple)" opacity="0.9" transform="rotate(300 50 50)"/>
  </g>

  <!-- Inner petals (4 petals) -->
  <g filter="url(#glow-apple)">
    <ellipse cx="50" cy="44" rx="2" ry="5" fill="url(#lotus-gradient-apple)" transform="rotate(0 50 50)"/>
    <ellipse cx="50" cy="44" rx="2" ry="5" fill="url(#lotus-gradient-apple)" transform="rotate(90 50 50)"/>
    <ellipse cx="50" cy="44" rx="2" ry="5" fill="url(#lotus-gradient-apple)" transform="rotate(180 50 50)"/>
    <ellipse cx="50" cy="44" rx="2" ry="5" fill="url(#lotus-gradient-apple)" transform="rotate(270 50 50)"/>
  </g>

  <!-- Center -->
  <circle cx="50" cy="50" r="2.5" fill="url(#lotus-gradient-apple)" filter="url(#glow-apple)"/>
</svg>