<svg width="32" height="32" viewBox="0 0 120 120" fill="none" xmlns="http://www.w3.org/2000/svg">
  <defs>
    <linearGradient id="lotusGradient" x1="0%" y1="0%" x2="100%" y2="100%">
      <stop offset="0%" style="stop-color:#C084FC;stop-opacity:1"/>
      <stop offset="30%" style="stop-color:#A855F7;stop-opacity:1"/>
      <stop offset="70%" style="stop-color:#8B5CF6;stop-opacity:1"/>
      <stop offset="100%" style="stop-color:#7C3AED;stop-opacity:1"/>
    </linearGradient>
    
    <linearGradient id="petalGradient" x1="0%" y1="0%" x2="100%" y2="100%">
      <stop offset="0%" style="stop-color:#FFFFFF;stop-opacity:1"/>
      <stop offset="50%" style="stop-color:#F3E8FF;stop-opacity:1"/>
      <stop offset="100%" style="stop-color:#E9D5FF;stop-opacity:1"/>
    </linearGradient>

    <radialGradient id="centerGlow" cx="50%" cy="50%" r="50%">
      <stop offset="0%" style="stop-color:#FFFFFF;stop-opacity:0.9"/>
      <stop offset="70%" style="stop-color:#C084FC;stop-opacity:0.6"/>
      <stop offset="100%" style="stop-color:#8B5CF6;stop-opacity:0.3"/>
    </radialGradient>
  </defs>
  
  <!-- Background glow -->
  <circle cx="60" cy="60" r="55" fill="url(#lotusGradient)" opacity="0.8"/>
  
  <!-- Outer lotus petals -->
  <g>
    <path d="M60 15 Q50 35 60 50 Q70 35 60 15" fill="url(#petalGradient)" stroke="#8B5CF6" stroke-width="0.4" opacity="0.85" transform="rotate(0 60 60)"/>
    <path d="M60 15 Q50 35 60 50 Q70 35 60 15" fill="url(#petalGradient)" stroke="#8B5CF6" stroke-width="0.4" opacity="0.85" transform="rotate(60 60 60)"/>
    <path d="M60 15 Q50 35 60 50 Q70 35 60 15" fill="url(#petalGradient)" stroke="#8B5CF6" stroke-width="0.4" opacity="0.85" transform="rotate(120 60 60)"/>
    <path d="M60 15 Q50 35 60 50 Q70 35 60 15" fill="url(#petalGradient)" stroke="#8B5CF6" stroke-width="0.4" opacity="0.85" transform="rotate(180 60 60)"/>
    <path d="M60 15 Q50 35 60 50 Q70 35 60 15" fill="url(#petalGradient)" stroke="#8B5CF6" stroke-width="0.4" opacity="0.85" transform="rotate(240 60 60)"/>
    <path d="M60 15 Q50 35 60 50 Q70 35 60 15" fill="url(#petalGradient)" stroke="#8B5CF6" stroke-width="0.4" opacity="0.85" transform="rotate(300 60 60)"/>
  </g>
  
  <!-- Middle lotus petals -->
  <g>
    <path d="M60 25 Q52 40 60 50 Q68 40 60 25" fill="url(#petalGradient)" stroke="#A855F7" stroke-width="0.4" opacity="0.9" transform="rotate(30 60 60)"/>
    <path d="M60 25 Q52 40 60 50 Q68 40 60 25" fill="url(#petalGradient)" stroke="#A855F7" stroke-width="0.4" opacity="0.9" transform="rotate(90 60 60)"/>
    <path d="M60 25 Q52 40 60 50 Q68 40 60 25" fill="url(#petalGradient)" stroke="#A855F7" stroke-width="0.4" opacity="0.9" transform="rotate(150 60 60)"/>
    <path d="M60 25 Q52 40 60 50 Q68 40 60 25" fill="url(#petalGradient)" stroke="#A855F7" stroke-width="0.4" opacity="0.9" transform="rotate(210 60 60)"/>
    <path d="M60 25 Q52 40 60 50 Q68 40 60 25" fill="url(#petalGradient)" stroke="#A855F7" stroke-width="0.4" opacity="0.9" transform="rotate(270 60 60)"/>
    <path d="M60 25 Q52 40 60 50 Q68 40 60 25" fill="url(#petalGradient)" stroke="#A855F7" stroke-width="0.4" opacity="0.9" transform="rotate(330 60 60)"/>
  </g>
  
  <!-- Inner lotus petals -->
  <g>
    <path d="M60 35 Q56 45 60 50 Q64 45 60 35" fill="#FFFFFF" stroke="#C084FC" stroke-width="0.3" opacity="0.95" transform="rotate(0 60 60)"/>
    <path d="M60 35 Q56 45 60 50 Q64 45 60 35" fill="#FFFFFF" stroke="#C084FC" stroke-width="0.3" opacity="0.95" transform="rotate(45 60 60)"/>
    <path d="M60 35 Q56 45 60 50 Q64 45 60 35" fill="#FFFFFF" stroke="#C084FC" stroke-width="0.3" opacity="0.95" transform="rotate(90 60 60)"/>
    <path d="M60 35 Q56 45 60 50 Q64 45 60 35" fill="#FFFFFF" stroke="#C084FC" stroke-width="0.3" opacity="0.95" transform="rotate(135 60 60)"/>
    <path d="M60 35 Q56 45 60 50 Q64 45 60 35" fill="#FFFFFF" stroke="#C084FC" stroke-width="0.3" opacity="0.95" transform="rotate(180 60 60)"/>
    <path d="M60 35 Q56 45 60 50 Q64 45 60 35" fill="#FFFFFF" stroke="#C084FC" stroke-width="0.3" opacity="0.95" transform="rotate(225 60 60)"/>
    <path d="M60 35 Q56 45 60 50 Q64 45 60 35" fill="#FFFFFF" stroke="#C084FC" stroke-width="0.3" opacity="0.95" transform="rotate(270 60 60)"/>
    <path d="M60 35 Q56 45 60 50 Q64 45 60 35" fill="#FFFFFF" stroke="#C084FC" stroke-width="0.3" opacity="0.95" transform="rotate(315 60 60)"/>
  </g>
  
  <!-- Sacred center -->
  <circle cx="60" cy="60" r="8" fill="url(#centerGlow)"/>
  <circle cx="60" cy="60" r="5" fill="#FFFFFF" opacity="0.9"/>
  <circle cx="60" cy="60" r="2" fill="url(#lotusGradient)"/>
  
  <!-- Energy particles -->
  <circle cx="25" cy="35" r="1.2" fill="#FFFFFF" opacity="0.7"/>
  <circle cx="95" cy="40" r="1.2" fill="#FFFFFF" opacity="0.7"/>
  <circle cx="85" cy="85" r="1.2" fill="#FFFFFF" opacity="0.7"/>
  <circle cx="35" cy="90" r="1.2" fill="#FFFFFF" opacity="0.7"/>
  <circle cx="90" cy="70" r="1.2" fill="#FFFFFF" opacity="0.7"/>
</svg>