<svg width="512" height="512" viewBox="0 0 100 100" xmlns="http://www.w3.org/2000/svg">
  <defs>
    <linearGradient id="lotus-gradient-512" x1="0%" y1="0%" x2="100%" y2="100%">
      <stop offset="0%" style="stop-color:#ec4899;stop-opacity:1" />
      <stop offset="50%" style="stop-color:#8b5cf6;stop-opacity:1" />
      <stop offset="100%" style="stop-color:#06b6d4;stop-opacity:1" />
    </linearGradient>
    <filter id="glow-512">
      <feGaussianBlur stdDeviation="2" result="coloredBlur"/>
      <feMerge> 
        <feMergeNode in="coloredBlur"/>
        <feMergeNode in="SourceGraphic"/>
      </feMerge>
    </filter>
  </defs>

  <!-- Background Circle -->
  <circle cx="50" cy="50" r="45" fill="url(#lotus-gradient-512)" opacity="0.1"/>
  
  <!-- Outer petals (8 petals) -->
  <g filter="url(#glow-512)">
    <ellipse cx="50" cy="25" rx="4" ry="12" fill="url(#lotus-gradient-512)" opacity="0.8" transform="rotate(0 50 50)"/>
    <ellipse cx="50" cy="25" rx="4" ry="12" fill="url(#lotus-gradient-512)" opacity="0.8" transform="rotate(45 50 50)"/>
    <ellipse cx="50" cy="25" rx="4" ry="12" fill="url(#lotus-gradient-512)" opacity="0.8" transform="rotate(90 50 50)"/>
    <ellipse cx="50" cy="25" rx="4" ry="12" fill="url(#lotus-gradient-512)" opacity="0.8" transform="rotate(135 50 50)"/>
    <ellipse cx="50" cy="25" rx="4" ry="12" fill="url(#lotus-gradient-512)" opacity="0.8" transform="rotate(180 50 50)"/>
    <ellipse cx="50" cy="25" rx="4" ry="12" fill="url(#lotus-gradient-512)" opacity="0.8" transform="rotate(225 50 50)"/>
    <ellipse cx="50" cy="25" rx="4" ry="12" fill="url(#lotus-gradient-512)" opacity="0.8" transform="rotate(270 50 50)"/>
    <ellipse cx="50" cy="25" rx="4" ry="12" fill="url(#lotus-gradient-512)" opacity="0.8" transform="rotate(315 50 50)"/>
  </g>

  <!-- Middle layer petals (6 petals) -->
  <g filter="url(#glow-512)">
    <ellipse cx="50" cy="35" rx="3" ry="8" fill="url(#lotus-gradient-512)" opacity="0.9" transform="rotate(0 50 50)"/>
    <ellipse cx="50" cy="35" rx="3" ry="8" fill="url(#lotus-gradient-512)" opacity="0.9" transform="rotate(60 50 50)"/>
    <ellipse cx="50" cy="35" rx="3" ry="8" fill="url(#lotus-gradient-512)" opacity="0.9" transform="rotate(120 50 50)"/>
    <ellipse cx="50" cy="35" rx="3" ry="8" fill="url(#lotus-gradient-512)" opacity="0.9" transform="rotate(180 50 50)"/>
    <ellipse cx="50" cy="35" rx="3" ry="8" fill="url(#lotus-gradient-512)" opacity="0.9" transform="rotate(240 50 50)"/>
    <ellipse cx="50" cy="35" rx="3" ry="8" fill="url(#lotus-gradient-512)" opacity="0.9" transform="rotate(300 50 50)"/>
  </g>

  <!-- Inner petals (4 petals) -->
  <g filter="url(#glow-512)">
    <ellipse cx="50" cy="42" rx="2.5" ry="6" fill="url(#lotus-gradient-512)" transform="rotate(0 50 50)"/>
    <ellipse cx="50" cy="42" rx="2.5" ry="6" fill="url(#lotus-gradient-512)" transform="rotate(90 50 50)"/>
    <ellipse cx="50" cy="42" rx="2.5" ry="6" fill="url(#lotus-gradient-512)" transform="rotate(180 50 50)"/>
    <ellipse cx="50" cy="42" rx="2.5" ry="6" fill="url(#lotus-gradient-512)" transform="rotate(270 50 50)"/>
  </g>

  <!-- Center -->
  <circle cx="50" cy="50" r="3" fill="url(#lotus-gradient-512)" filter="url(#glow-512)"/>
  
  <!-- Energy particles -->
  <circle cx="30" cy="30" r="1" fill="#ec4899" opacity="0.6"/>
  <circle cx="70" cy="35" r="0.8" fill="#8b5cf6" opacity="0.5"/>
  <circle cx="65" cy="65" r="1.2" fill="#06b6d4" opacity="0.7"/>
  <circle cx="35" cy="70" r="0.9" fill="#ec4899" opacity="0.4"/>
</svg>